<svg width="124" height="98" viewBox="0 0 124 98" fill="none" xmlns="http://www.w3.org/2000/svg">
<g filter="url(#filter0_g_118_1058)">
<path d="M93.5562 46.0599L64.7399 17.2447C63.0814 15.5851 60.3898 15.5851 58.7293 17.2447L52.7454 23.2286L60.3362 30.8195C62.1002 30.2235 64.123 30.6233 65.5291 32.0295C66.9419 33.4446 67.3389 35.4847 66.7284 37.2544L74.0439 44.5702C75.8138 43.9605 77.8559 44.3549 79.2695 45.7709C81.2451 47.7457 81.2451 50.9466 79.2695 52.9227C77.2933 54.8992 74.0926 54.8992 72.1154 52.9227C70.6294 51.4351 70.2623 49.2527 71.0146 47.4219L64.1923 40.5996L64.1915 58.5532C64.6861 58.7977 65.1378 59.1207 65.5291 59.5097C67.5047 61.4846 67.5047 64.6856 65.5291 66.6634C63.5529 68.6387 60.3506 68.6387 58.3773 66.6634C56.4017 64.6856 56.4017 61.4848 58.3773 59.51C58.8508 59.0363 59.4134 58.6611 60.0328 58.4062V40.2853C59.4125 40.0321 58.8496 39.6568 58.3773 39.1816C56.8805 37.6868 56.5206 35.4904 57.2876 33.6524L49.8048 26.1688L30.046 45.9266C28.3857 47.5877 28.3857 50.2796 30.046 51.9394L58.8628 80.7551C60.5218 82.415 63.2129 82.415 64.874 80.7551L93.5559 52.0732C95.2157 50.4129 95.216 47.7195 93.5562 46.0599Z" fill="#BEBEBE"/>
</g>
<defs>
<filter id="filter0_g_118_1058" x="-3.59961" y="-3.66666" width="130.8" height="105.333" filterUnits="userSpaceOnUse" color-interpolation-filters="sRGB">
<feFlood flood-opacity="0" result="BackgroundImageFix"/>
<feBlend mode="normal" in="SourceGraphic" in2="BackgroundImageFix" result="shape"/>
<feTurbulence type="fractalNoise" baseFrequency="0.019999999552965164 0.019999999552965164" numOctaves="3" seed="4165" />
<feDisplacementMap in="shape" scale="8" xChannelSelector="R" yChannelSelector="G" result="displacedImage" width="100%" height="100%" />
<feMerge result="effect1_texture_118_1058">
<feMergeNode in="displacedImage"/>
</feMerge>
</filter>
</defs>
</svg>
