<svg width="127" height="102" viewBox="0 0 127 102" fill="none" xmlns="http://www.w3.org/2000/svg">
<g filter="url(#filter0_g_118_1026)">
<rect x="0.5" y="0.5" width="121.8" height="96.3333" stroke="#D8D8D8"/>
<path d="M28.4004 20.6667C28.4004 17.9052 30.639 15.6667 33.4004 15.6667H94.4004V81.6667H33.4004C30.639 81.6667 28.4004 79.4281 28.4004 76.6667V20.6667Z" fill="#C0C0C0"/>
<path d="M68.1318 69.9346L72.9636 66.7375C73.3422 67.9271 75.74 70.7524 78.7689 70.7524C81.7977 70.7524 83.204 69.0982 83.204 68.0015C83.204 65.0127 80.1111 63.959 78.6257 63.4528C78.3835 63.3703 78.1841 63.3024 78.0477 63.243C77.9778 63.2125 77.872 63.1721 77.7362 63.1202C76.0841 62.489 69.9888 60.1603 69.9888 53.41C69.9888 45.9748 77.1643 45.1198 78.7869 45.1198C79.8485 45.1198 84.9528 45.2499 87.4948 50.027L82.8073 53.2985C81.7797 51.2166 80.0723 50.5289 79.0213 50.5289C76.4251 50.5289 75.8842 52.4321 75.8842 53.2985C75.8842 55.7294 78.7049 56.819 81.0865 57.739C81.7096 57.9797 82.3027 58.2088 82.8073 58.4473C85.4035 59.6741 89.2256 61.6816 89.2256 68.0015C89.2256 71.1669 86.5706 76.2917 79.8866 76.2917C70.9083 76.2917 68.5285 70.9012 68.1318 69.9346Z" fill="black"/>
<path d="M44.6943 70.5695L49.7303 67.374C50.1249 68.563 51.6582 70.7553 53.8831 70.7553C56.1079 70.7553 57.2466 68.4701 57.2466 67.374V45.8229H63.4401V67.374C63.5403 70.3465 61.8917 76.2917 54.6159 76.2917C47.9264 76.2917 45.1453 72.3159 44.6943 70.5695Z" fill="black"/>
</g>
<defs>
<filter id="filter0_g_118_1026" x="-4" y="-4" width="130.8" height="105.333" filterUnits="userSpaceOnUse" color-interpolation-filters="sRGB">
<feFlood flood-opacity="0" result="BackgroundImageFix"/>
<feBlend mode="normal" in="SourceGraphic" in2="BackgroundImageFix" result="shape"/>
<feTurbulence type="fractalNoise" baseFrequency="0.052631579339504242 0.052631579339504242" numOctaves="3" seed="1718" />
<feDisplacementMap in="shape" scale="8" xChannelSelector="R" yChannelSelector="G" result="displacedImage" width="100%" height="100%" />
<feMerge result="effect1_texture_118_1026">
<feMergeNode in="displacedImage"/>
</feMerge>
</filter>
</defs>
</svg>
