<svg width="127" height="102" viewBox="0 0 127 102" fill="none" xmlns="http://www.w3.org/2000/svg">
<g filter="url(#filter0_g_118_1066)">
<rect x="0.5" y="5.16669" width="121.8" height="96.3333" stroke="#D1D1D1"/>
<path d="M61.1986 21.0108L62.9215 24.2687C63.3089 24.8699 63.7285 25.4021 64.2228 25.8977C65.6719 27.3384 67.0226 28.876 68.2658 30.5001C71.1851 34.3592 73.1541 38.6448 74.5603 43.2798C75.4036 46.1111 75.8616 49.0156 75.8959 51.9526C76.0371 60.733 73.0472 68.2724 67.019 74.5384C66.0384 75.532 64.9791 76.4436 63.8516 77.2641C63.2544 77.2641 62.9719 76.8031 62.7258 76.3786C62.2776 75.5914 61.9793 74.7269 61.8462 73.8295C61.6344 72.7673 61.4952 71.705 61.5637 70.6082V70.1126C61.5153 70.007 60.9888 21.2607 61.1986 21.0108V21.0108Z" fill="#BFBFBF"/>
<path d="M61.1983 20.9032C61.1277 20.761 61.0571 20.8687 60.9865 20.9377C61.0208 21.6486 60.7747 22.2823 60.3893 22.8876C59.9657 23.4888 59.4048 23.9499 58.8419 24.4455C55.7149 27.1712 53.2536 30.4636 51.2825 34.146C48.6598 39.1019 47.3081 44.4132 46.9248 50.0048C46.7492 52.0217 47.5582 59.1387 48.1897 61.1921C49.9126 66.6436 53.0074 71.2115 57.0161 75.1762C58.0007 76.1308 59.0538 77.0164 60.1432 77.8674C60.46 77.8674 60.4943 77.5831 60.5669 77.3718C60.7057 76.9198 60.8116 76.4582 60.8836 75.9907L61.5897 70.6814L61.1983 20.9032Z" fill="#242424"/>
<path d="M62.9216 79.4212C62.9922 78.6088 63.3796 77.9345 63.8012 77.2622C63.3776 77.0855 63.0628 76.7341 62.8167 76.3421C62.6045 75.9709 62.4288 75.5798 62.2922 75.1742C61.7999 73.6874 61.695 72.1276 61.5538 70.6083V69.6882C61.3782 69.8304 61.3419 71.0328 61.3419 71.2115C61.2393 72.8173 61.0276 74.4141 60.7084 75.9907C60.6035 76.6285 60.5329 77.2642 60.1436 77.8309C60.1436 77.902 60.1436 77.973 60.1779 78.0787C60.8113 79.9554 60.9848 81.8666 61.0918 83.8145V84.5253C61.0918 85.3743 61.0575 85.1956 61.7575 85.4799C62.04 85.5856 62.3547 85.6221 62.6372 85.8334C62.849 85.8334 62.8833 85.6567 62.8833 85.5145L62.7784 84.3466V81.0887C62.7441 80.52 62.849 79.9554 62.9196 79.4232L62.9216 79.4212Z" fill="#C2BFBF"/>
</g>
<defs>
<filter id="filter0_g_118_1066" x="-4" y="0.666687" width="130.8" height="105.333" filterUnits="userSpaceOnUse" color-interpolation-filters="sRGB">
<feFlood flood-opacity="0" result="BackgroundImageFix"/>
<feBlend mode="normal" in="SourceGraphic" in2="BackgroundImageFix" result="shape"/>
<feTurbulence type="fractalNoise" baseFrequency="0.029411764815449715 0.029411764815449715" numOctaves="3" seed="9373" />
<feDisplacementMap in="shape" scale="8" xChannelSelector="R" yChannelSelector="G" result="displacedImage" width="100%" height="100%" />
<feMerge result="effect1_texture_118_1066">
<feMergeNode in="displacedImage"/>
</feMerge>
</filter>
</defs>
</svg>
