<svg width="132" height="102" viewBox="0 0 132 102" fill="none" xmlns="http://www.w3.org/2000/svg">
<g filter="url(#filter0_g_118_1078)">
<rect x="4.90039" y="5.16669" width="121.8" height="96.3333" stroke="#D8D8D8"/>
<rect x="32.3008" y="19.8333" width="67" height="67" rx="8" fill="#B7B7B7"/>
<path d="M55.0842 49.274C55.0842 49.886 55.1657 50.3755 55.2473 50.7427C55.3697 51.1099 55.5329 51.4771 55.7777 51.9258C55.8593 52.0482 55.9001 52.1706 55.9001 52.293C55.9001 52.4562 55.8185 52.6194 55.5737 52.7826L54.5538 53.4761C54.3906 53.5577 54.2682 53.6393 54.1458 53.6393C53.9826 53.6393 53.8195 53.5577 53.6563 53.3945C53.4115 53.1498 53.2483 52.905 53.0851 52.6194C52.9219 52.3338 52.7587 52.0482 52.5956 51.6403C51.3309 53.1498 49.7398 53.8841 47.7816 53.8841C46.3945 53.8841 45.3338 53.4761 44.5178 52.701C43.7019 51.9258 43.2939 50.8651 43.2939 49.5596C43.2939 48.1725 43.7835 47.0302 44.7626 46.2142C45.7417 45.3983 47.088 44.9495 48.7607 44.9495C49.3318 44.9495 49.903 44.9903 50.4741 45.0719C51.0861 45.1535 51.698 45.2759 52.3508 45.4391V44.2559C52.3508 43.032 52.106 42.1345 51.5756 41.6449C51.0453 41.1553 50.1886 40.9105 48.9239 40.9105C48.3527 40.9105 47.7816 40.9921 47.1696 41.1145C46.5577 41.2777 45.9865 41.4409 45.4154 41.6857C45.1706 41.7673 44.9666 41.8489 44.8442 41.8897C44.7218 41.8897 44.6402 41.9305 44.5994 41.9305C44.3547 41.9305 44.2731 41.7673 44.2731 41.4409V40.625C44.2731 40.3802 44.3139 40.1762 44.3955 40.0538C44.477 39.9314 44.6402 39.809 44.8442 39.7274C45.4154 39.4418 46.1089 39.1971 46.884 38.9931C47.7 38.7891 48.5159 38.6667 49.4134 38.6667C51.3717 38.6667 52.7587 39.1155 53.6971 39.9722C54.5946 40.8697 55.0434 42.1753 55.0434 44.0111L55.0842 49.274ZM48.4751 51.7627C49.0055 51.7627 49.5766 51.6811 50.1478 51.4771C50.7189 51.2731 51.2493 50.9059 51.698 50.4163C51.9428 50.09 52.1468 49.7636 52.2692 49.3556C52.3508 48.9476 52.4324 48.4989 52.4324 47.9277V47.2341C51.9428 47.1117 51.4533 47.0302 50.9229 46.9486C50.3925 46.867 49.903 46.867 49.3726 46.867C48.2711 46.867 47.496 47.0709 46.9248 47.5197C46.3945 47.9685 46.1089 48.5805 46.1089 49.3964C46.1089 50.1716 46.3129 50.7427 46.7209 51.1099C47.1288 51.5995 47.7 51.7627 48.4751 51.7627ZM61.5708 53.5577C61.2852 53.5577 61.0812 53.5169 60.9589 53.3945C60.8365 53.313 60.7141 53.0682 60.6325 52.7418L56.7976 40.0946C56.716 39.7682 56.6344 39.5642 56.6344 39.4418C56.6344 39.1971 56.7568 39.0339 57.0424 39.0339H58.6335C58.9598 39.0339 59.1638 39.0747 59.2862 39.1971C59.4086 39.2786 59.531 39.5234 59.6126 39.8498L62.3459 50.6611L64.8753 39.8498C64.9569 39.5234 65.0385 39.3194 65.2017 39.1971C65.3241 39.1155 65.5689 39.0339 65.8544 39.0339H67.1599C67.4863 39.0339 67.6903 39.0747 67.8127 39.1971C67.9351 39.2786 68.0575 39.5234 68.1391 39.8498L70.7092 50.7835L73.5242 39.8498C73.6058 39.5234 73.7282 39.3194 73.8506 39.1971C73.973 39.1155 74.1769 39.0339 74.5033 39.0339H76.0128C76.2576 39.0339 76.4208 39.1563 76.4208 39.4418C76.4208 39.5234 76.4208 39.605 76.38 39.6866C76.38 39.7682 76.3392 39.9314 76.2576 40.0946L72.3003 52.7418C72.2187 53.0682 72.0963 53.2722 71.9739 53.3945C71.8515 53.4761 71.6476 53.5577 71.362 53.5577H69.9749C69.6485 53.5577 69.4445 53.5169 69.3222 53.3945C69.1998 53.2722 69.0774 53.0682 68.9958 52.7418L66.4664 42.2161L63.937 52.7418C63.8554 53.0682 63.7738 53.2722 63.6106 53.3945C63.4882 53.5169 63.2435 53.5577 62.9579 53.5577H61.5708ZM82.581 53.9657C81.7243 53.9657 80.8676 53.8841 80.0517 53.6801C79.2357 53.4761 78.583 53.2722 78.175 53.0274C77.9302 52.8642 77.7262 52.701 77.6855 52.5786C77.6447 52.4562 77.5631 52.2522 77.5631 52.1298V51.3139C77.5631 50.9875 77.6855 50.8243 77.9302 50.8243C78.0118 50.8243 78.1342 50.8243 78.2158 50.8651C78.2974 50.9059 78.4606 50.9467 78.6238 51.0283C79.1949 51.2731 79.7661 51.4771 80.4188 51.5995C81.0716 51.7219 81.7243 51.8034 82.3771 51.8034C83.397 51.8034 84.2129 51.6403 84.7433 51.2731C85.3144 50.9059 85.6 50.3755 85.6 49.7228C85.6 49.274 85.4368 48.9068 85.1512 48.5805C84.8656 48.2541 84.2945 48.0093 83.5194 47.7237L81.1532 46.9894C79.9701 46.6222 79.0725 46.051 78.5422 45.3167C78.0118 44.5823 77.7262 43.8072 77.7262 42.9504C77.7262 42.2569 77.8894 41.6449 78.175 41.1553C78.4606 40.6658 78.8686 40.1762 79.3581 39.809C79.8477 39.4418 80.4188 39.1563 81.0716 38.9523C81.7243 38.7483 82.4179 38.6667 83.1114 38.6667C83.4786 38.6667 83.8457 38.6667 84.2129 38.7483C84.5801 38.7891 84.9472 38.8707 85.2736 38.9115C85.6 38.9931 85.9264 39.0747 86.2119 39.1563C86.4975 39.2379 86.7423 39.3602 86.9055 39.4418C87.1503 39.5642 87.3134 39.6866 87.395 39.8498C87.4766 39.9722 87.5582 40.1762 87.5582 40.3802V41.1553C87.5582 41.4817 87.4358 41.6857 87.191 41.6857C87.0687 41.6857 86.8647 41.6041 86.5791 41.4817C85.6408 41.0737 84.6209 40.8289 83.4378 40.8289C82.4994 40.8289 81.7651 40.9921 81.2755 41.2777C80.786 41.5633 80.5004 42.0529 80.5004 42.7464C80.5004 43.1952 80.6636 43.6032 80.99 43.8888C81.3163 44.2151 81.9283 44.5007 82.785 44.7863L85.1104 45.5206C86.2935 45.8878 87.1503 46.4182 87.6398 47.0709C88.1294 47.7237 88.3742 48.4989 88.3742 49.3556C88.3742 50.0492 88.211 50.7019 87.9662 51.2323C87.6806 51.8034 87.2726 52.293 86.7831 52.6602C86.2935 53.0682 85.6816 53.3537 84.988 53.5577C84.1721 53.8841 83.397 53.9657 82.581 53.9657Z" fill="#252F3E"/>
<path fill-rule="evenodd" clip-rule="evenodd" d="M85.6827 61.9212C80.2975 65.8786 72.4646 68 65.7739 68C56.3499 68 47.8642 64.5322 41.4592 58.739C40.9696 58.2902 41.4184 57.6783 42.0303 58.0047C48.9657 62.0436 57.4922 64.4506 66.3451 64.4506C72.3014 64.4506 78.8696 63.2267 84.9075 60.6565C85.7642 60.2893 86.5394 61.2685 85.6827 61.9212Z" fill="#242424"/>
<path fill-rule="evenodd" clip-rule="evenodd" d="M87.8864 59.3918C87.1929 58.4943 83.358 58.9838 81.6037 59.1878C81.0734 59.2694 80.9918 58.7798 81.4813 58.4535C84.5411 56.2912 89.5998 56.9032 90.171 57.6375C90.7422 58.3719 90.0078 63.4307 87.1521 65.8378C86.7033 66.205 86.2953 66.001 86.4993 65.5114C87.1521 63.8795 88.5799 60.2485 87.8864 59.3918Z" fill="#242424"/>
<path d="M55.0842 49.274C55.0842 49.886 55.1657 50.3755 55.2473 50.7427C55.3697 51.1099 55.5329 51.4771 55.7777 51.9258C55.8593 52.0482 55.9001 52.1706 55.9001 52.293C55.9001 52.4562 55.8185 52.6194 55.5737 52.7826L54.5538 53.4761C54.3906 53.5577 54.2682 53.6393 54.1458 53.6393C53.9826 53.6393 53.8195 53.5577 53.6563 53.3945C53.4115 53.1498 53.2483 52.905 53.0851 52.6194C52.9219 52.3338 52.7587 52.0482 52.5956 51.6403C51.3309 53.1498 49.7398 53.8841 47.7816 53.8841C46.3945 53.8841 45.3338 53.4761 44.5178 52.701C43.7019 51.9258 43.2939 50.8651 43.2939 49.5596C43.2939 48.1725 43.7835 47.0302 44.7626 46.2142C45.7417 45.3983 47.088 44.9495 48.7607 44.9495C49.3318 44.9495 49.903 44.9903 50.4741 45.0719C51.0861 45.1535 51.698 45.2759 52.3508 45.4391V44.2559C52.3508 43.032 52.106 42.1345 51.5756 41.6449C51.0453 41.1553 50.1886 40.9105 48.9239 40.9105C48.3527 40.9105 47.7816 40.9921 47.1696 41.1145C46.5577 41.2777 45.9865 41.4409 45.4154 41.6857C45.1706 41.7673 44.9666 41.8489 44.8442 41.8897C44.7218 41.8897 44.6402 41.9305 44.5994 41.9305C44.3547 41.9305 44.2731 41.7673 44.2731 41.4409V40.625C44.2731 40.3802 44.3139 40.1762 44.3955 40.0538C44.477 39.9314 44.6402 39.809 44.8442 39.7274C45.4154 39.4418 46.1089 39.1971 46.884 38.9931C47.7 38.7891 48.5159 38.6667 49.4134 38.6667C51.3717 38.6667 52.7587 39.1155 53.6971 39.9722C54.5946 40.8697 55.0434 42.1753 55.0434 44.0111L55.0842 49.274ZM48.4751 51.7627C49.0055 51.7627 49.5766 51.6811 50.1478 51.4771C50.7189 51.2731 51.2493 50.9059 51.698 50.4163C51.9428 50.09 52.1468 49.7636 52.2692 49.3556C52.3508 48.9476 52.4324 48.4989 52.4324 47.9277V47.2341C51.9428 47.1117 51.4533 47.0302 50.9229 46.9486C50.3925 46.867 49.903 46.867 49.3726 46.867C48.2711 46.867 47.496 47.0709 46.9248 47.5197C46.3945 47.9685 46.1089 48.5805 46.1089 49.3964C46.1089 50.1716 46.3129 50.7427 46.7209 51.1099C47.1288 51.5995 47.7 51.7627 48.4751 51.7627ZM61.5708 53.5577C61.2852 53.5577 61.0812 53.5169 60.9589 53.3945C60.8365 53.313 60.7141 53.0682 60.6325 52.7418L56.7976 40.0946C56.716 39.7682 56.6344 39.5642 56.6344 39.4418C56.6344 39.1971 56.7568 39.0339 57.0424 39.0339H58.6335C58.9598 39.0339 59.1638 39.0747 59.2862 39.1971C59.4086 39.2786 59.531 39.5234 59.6126 39.8498L62.3459 50.6611L64.8753 39.8498C64.9569 39.5234 65.0385 39.3194 65.2017 39.1971C65.3241 39.1155 65.5689 39.0339 65.8544 39.0339H67.1599C67.4863 39.0339 67.6903 39.0747 67.8127 39.1971C67.9351 39.2786 68.0575 39.5234 68.1391 39.8498L70.7092 50.7835L73.5242 39.8498C73.6058 39.5234 73.7282 39.3194 73.8506 39.1971C73.973 39.1155 74.1769 39.0339 74.5033 39.0339H76.0128C76.2576 39.0339 76.4208 39.1563 76.4208 39.4418C76.4208 39.5234 76.4208 39.605 76.38 39.6866C76.38 39.7682 76.3392 39.9314 76.2576 40.0946L72.3003 52.7418C72.2187 53.0682 72.0963 53.2722 71.9739 53.3945C71.8515 53.4761 71.6476 53.5577 71.362 53.5577H69.9749C69.6485 53.5577 69.4445 53.5169 69.3222 53.3945C69.1998 53.2722 69.0774 53.0682 68.9958 52.7418L66.4664 42.2161L63.937 52.7418C63.8554 53.0682 63.7738 53.2722 63.6106 53.3945C63.4882 53.5169 63.2435 53.5577 62.9579 53.5577H61.5708ZM82.581 53.9657C81.7243 53.9657 80.8676 53.8841 80.0517 53.6801C79.2357 53.4761 78.583 53.2722 78.175 53.0274C77.9302 52.8642 77.7262 52.701 77.6855 52.5786C77.6447 52.4562 77.5631 52.2522 77.5631 52.1298V51.3139C77.5631 50.9875 77.6855 50.8243 77.9302 50.8243C78.0118 50.8243 78.1342 50.8243 78.2158 50.8651C78.2974 50.9059 78.4606 50.9467 78.6238 51.0283C79.1949 51.2731 79.7661 51.4771 80.4188 51.5995C81.0716 51.7219 81.7243 51.8034 82.3771 51.8034C83.397 51.8034 84.2129 51.6403 84.7433 51.2731C85.3144 50.9059 85.6 50.3755 85.6 49.7228C85.6 49.274 85.4368 48.9068 85.1512 48.5805C84.8656 48.2541 84.2945 48.0093 83.5194 47.7237L81.1532 46.9894C79.9701 46.6222 79.0725 46.051 78.5422 45.3167C78.0118 44.5823 77.7262 43.8072 77.7262 42.9504C77.7262 42.2569 77.8894 41.6449 78.175 41.1553C78.4606 40.6658 78.8686 40.1762 79.3581 39.809C79.8477 39.4418 80.4188 39.1563 81.0716 38.9523C81.7243 38.7483 82.4179 38.6667 83.1114 38.6667C83.4786 38.6667 83.8457 38.6667 84.2129 38.7483C84.5801 38.7891 84.9472 38.8707 85.2736 38.9115C85.6 38.9931 85.9264 39.0747 86.2119 39.1563C86.4975 39.2379 86.7423 39.3602 86.9055 39.4418C87.1503 39.5642 87.3134 39.6866 87.395 39.8498C87.4766 39.9722 87.5582 40.1762 87.5582 40.3802V41.1553C87.5582 41.4817 87.4358 41.6857 87.191 41.6857C87.0687 41.6857 86.8647 41.6041 86.5791 41.4817C85.6408 41.0737 84.6209 40.8289 83.4378 40.8289C82.4994 40.8289 81.7651 40.9921 81.2755 41.2777C80.786 41.5633 80.5004 42.0529 80.5004 42.7464C80.5004 43.1952 80.6636 43.6032 80.99 43.8888C81.3163 44.2151 81.9283 44.5007 82.785 44.7863L85.1104 45.5206C86.2935 45.8878 87.1503 46.4182 87.6398 47.0709C88.1294 47.7237 88.3742 48.4989 88.3742 49.3556C88.3742 50.0492 88.211 50.7019 87.9662 51.2323C87.6806 51.8034 87.2726 52.293 86.7831 52.6602C86.2935 53.0682 85.6816 53.3537 84.988 53.5577C84.1721 53.8841 83.397 53.9657 82.581 53.9657Z" fill="#232323"/>
<path fill-rule="evenodd" clip-rule="evenodd" d="M85.6827 61.9212C80.2975 65.8786 72.4646 68 65.7739 68C56.3499 68 47.8642 64.5322 41.4592 58.739C40.9696 58.2902 41.4184 57.6783 42.0303 58.0047C48.9657 62.0436 57.4922 64.4506 66.3451 64.4506C72.3014 64.4506 78.8696 63.2267 84.9075 60.6565C85.7642 60.2893 86.5394 61.2685 85.6827 61.9212Z" fill="#232323"/>
<path fill-rule="evenodd" clip-rule="evenodd" d="M87.8864 59.3918C87.1929 58.4943 83.358 58.9838 81.6037 59.1878C81.0734 59.2694 80.9918 58.7798 81.4813 58.4535C84.5411 56.2912 89.5998 56.9032 90.171 57.6375C90.7422 58.3719 90.0078 63.4307 87.1521 65.8378C86.7033 66.205 86.2953 66.001 86.4993 65.5114C87.1521 63.8795 88.5799 60.2485 87.8864 59.3918Z" fill="#232323"/>
</g>
<defs>
<filter id="filter0_g_118_1078" x="0.400391" y="0.666687" width="130.8" height="105.333" filterUnits="userSpaceOnUse" color-interpolation-filters="sRGB">
<feFlood flood-opacity="0" result="BackgroundImageFix"/>
<feBlend mode="normal" in="SourceGraphic" in2="BackgroundImageFix" result="shape"/>
<feTurbulence type="fractalNoise" baseFrequency="0.02777777798473835 0.02777777798473835" numOctaves="3" seed="6257" />
<feDisplacementMap in="shape" scale="8" xChannelSelector="R" yChannelSelector="G" result="displacedImage" width="100%" height="100%" />
<feMerge result="effect1_texture_118_1078">
<feMergeNode in="displacedImage"/>
</feMerge>
</filter>
</defs>
</svg>
