<svg width="132" height="102" viewBox="0 0 132 102" fill="none" xmlns="http://www.w3.org/2000/svg">
<g filter="url(#filter0_g_118_1070)">
<rect x="5.2998" y="5.16669" width="121.8" height="96.3333" stroke="#D8D8D8"/>
<path d="M84.7431 45.2227C83.8219 45.2227 82.9557 45.5795 82.3073 46.2278L79.6874 48.8408C78.9806 49.5456 78.6174 50.5244 78.6918 51.5278C78.6971 51.5826 78.7024 51.6374 78.7078 51.6939C78.8017 52.4642 79.14 53.1585 79.6874 53.7026C80.0647 54.0789 80.481 54.3174 80.9859 54.4835C81.0124 54.6354 81.0266 54.7891 81.0266 54.9428C81.0266 55.6354 80.7574 56.2855 80.2684 56.7731L80.1072 56.9339C79.2321 56.6352 78.5023 56.1989 77.8433 55.5417C76.9683 54.6689 76.389 53.5665 76.1711 52.3564L76.141 52.1885L76.0081 52.2964C75.9178 52.3688 75.8327 52.4465 75.753 52.526L73.133 55.1389C71.7903 56.478 71.7903 58.6599 73.133 59.999C73.8044 60.6685 74.6866 61.0042 75.5705 61.0042C76.4545 61.0042 77.3349 60.6685 78.0063 59.999L80.6263 57.3861C81.9691 56.0469 81.9691 53.8669 80.6263 52.526C80.2684 52.1692 79.8415 51.9006 79.3579 51.7275C79.3314 51.5702 79.3171 51.413 79.3171 51.2593C79.3171 50.5067 79.6148 49.793 80.1604 49.2488C81.0372 49.5474 81.8149 50.0315 82.4721 50.6869C83.3454 51.5579 83.9229 52.6585 84.1443 53.8722L84.1744 54.04L84.3073 53.9323C84.3977 53.8599 84.4827 53.7821 84.5642 53.7008L87.1842 51.088C88.5269 49.7488 88.5287 47.567 87.1842 46.2278C86.5341 45.5795 85.6695 45.2227 84.7467 45.2227H84.7431Z" fill="#262626"/>
<path d="M83.3402 35.6667H49.0592C39.2914 35.6667 31.3447 43.592 31.3447 53.3334C31.3447 63.0747 39.2914 71 49.0592 71H83.3402C93.108 71 101.055 63.0747 101.055 53.3334C101.055 43.592 93.108 35.6667 83.3402 35.6667ZM66.4318 63.3645C65.8667 63.4811 65.2307 63.5023 64.7985 63.0518C64.639 63.4175 64.267 63.2249 63.9801 63.1773C63.9535 63.2514 63.9305 63.3168 63.9057 63.391C62.9508 63.4546 62.2352 62.483 61.78 61.7498C60.8765 61.2622 59.8508 60.9654 58.9279 60.4548C58.8747 61.2958 59.059 62.3381 58.2565 62.8805C58.2158 64.4969 60.7082 63.0713 60.9367 64.2761C60.7596 64.2955 60.563 64.2478 60.4212 64.3838C59.7711 65.0146 59.0254 63.9069 58.276 64.3645C57.2698 64.8697 57.1689 65.2831 55.9235 65.3873C55.8545 65.2831 55.8828 65.2141 55.9412 65.1506C56.292 64.7442 56.3168 64.2655 56.9156 64.0923C56.2991 63.9952 55.7836 64.3344 55.2645 64.6029C54.5896 64.8785 54.595 63.981 53.5569 64.6506C53.4417 64.557 53.4967 64.4722 53.5622 64.3998C53.8261 64.0782 54.1734 64.0305 54.5649 64.0482C52.6393 62.9776 51.7323 65.3573 50.843 64.1736C50.5756 64.2443 50.4746 64.4845 50.3063 64.6541C50.161 64.4952 50.2709 64.3026 50.278 64.1153C50.1044 64.0341 49.8847 63.9952 49.936 63.7178C49.5959 63.603 49.3586 63.8044 49.1053 63.9952C48.8767 63.8185 49.2594 63.5606 49.3302 63.3768C49.5339 63.0235 49.998 63.3044 50.2336 63.05C50.9033 62.6702 51.8368 63.2867 52.6021 63.1826C53.192 63.2567 53.9218 62.6525 53.6259 62.05C52.9954 61.2463 53.1069 60.1951 53.0928 59.2341C53.0148 58.674 51.6667 57.9602 51.2771 57.356C50.7952 56.8119 50.4197 56.1813 50.0441 55.5612C48.6889 52.9447 49.1159 49.5827 47.4082 47.1536C46.6358 47.5794 45.6296 47.378 44.9636 46.8073C44.604 47.1341 44.588 47.5617 44.5597 48.0158C43.697 47.1554 43.8051 45.53 44.4942 44.5725C44.7759 44.1944 45.1124 43.8835 45.488 43.6097C45.5729 43.5478 45.6013 43.4878 45.5995 43.3924C46.2816 40.3325 50.9334 40.9226 52.4037 43.0903C53.4701 44.4241 53.7925 46.189 55.0024 47.4275C56.6303 49.2047 58.4851 50.7699 59.9872 52.662C61.4079 54.3916 62.423 56.4197 63.3087 58.4638C63.6701 59.1421 63.6736 59.9743 64.2086 60.5537C64.4725 60.9036 65.7622 61.8558 65.4823 62.1932C65.6435 62.5429 66.848 63.0253 66.43 63.3645H66.4318ZM89.0247 52.9271L86.4048 55.5399C85.7068 56.236 84.8442 56.7554 83.9088 57.0398L83.861 57.0539L83.8433 57.0999C83.5386 57.902 83.0762 58.6175 82.4668 59.2235L79.8469 61.8363C78.7043 62.9759 77.1844 63.603 75.5653 63.603C73.9462 63.603 72.4263 62.9759 71.2837 61.8363C68.9224 59.4814 68.9224 55.6512 71.2837 53.2963L73.9037 50.6834C74.6052 49.9838 75.4449 49.4803 76.3961 49.1888L76.444 49.1747L76.4617 49.1287C76.7664 48.3266 77.2305 47.6094 77.8417 46.9981L80.4616 44.3852C81.6041 43.2457 83.1241 42.6186 84.7431 42.6186C86.3623 42.6186 87.8822 43.2457 89.0247 44.3852C90.1674 45.5247 90.7962 47.0406 90.7962 48.6553C90.7962 50.27 90.1674 51.7875 89.0247 52.9253V52.9271Z" fill="#262626"/>
<path d="M55.7742 60.2021C55.5439 61.0961 55.4695 62.6171 54.3039 62.6613C54.2083 63.1772 54.6618 63.3715 55.0763 63.2054C55.4855 63.0182 55.6803 63.3539 55.8185 63.6877C56.4509 63.7796 57.3863 63.4775 57.4217 62.7302C56.4775 62.1879 56.1852 61.1561 55.7759 60.2004L55.7742 60.2021Z" fill="#262626"/>
</g>
<defs>
<filter id="filter0_g_118_1070" x="0.799805" y="0.666687" width="130.8" height="105.333" filterUnits="userSpaceOnUse" color-interpolation-filters="sRGB">
<feFlood flood-opacity="0" result="BackgroundImageFix"/>
<feBlend mode="normal" in="SourceGraphic" in2="BackgroundImageFix" result="shape"/>
<feTurbulence type="fractalNoise" baseFrequency="0.012048192322254181 0.012048192322254181" numOctaves="3" seed="9740" />
<feDisplacementMap in="shape" scale="8" xChannelSelector="R" yChannelSelector="G" result="displacedImage" width="100%" height="100%" />
<feMerge result="effect1_texture_118_1070">
<feMergeNode in="displacedImage"/>
</feMerge>
</filter>
</defs>
</svg>
