<svg width="127" height="106" viewBox="0 0 127 106" fill="none" xmlns="http://www.w3.org/2000/svg">
<g filter="url(#filter0_g_118_1062)">
<rect x="4.7002" y="4.83334" width="121.8" height="96.3333" stroke="#D0D0D0"/>
<path d="M32.6006 20H98.6006V86H32.6006V20Z" fill="#BFBFBF"/>
<path d="M64.2907 44.4406H67.4567V49.9063H58.8973V74.2231L58.6704 74.285C58.361 74.3675 54.2876 74.3675 53.411 74.2747L52.7098 74.2128V49.9063H44.1504V44.4406L46.8626 44.4097C48.3476 44.3891 52.1632 44.3891 55.3395 44.4097C58.5157 44.4303 62.5376 44.4406 64.2907 44.4406V44.4406ZM88.453 71.645C87.1948 72.9753 85.8439 73.7178 83.5958 74.3263C82.6161 74.5944 82.4511 74.6047 80.2442 74.5944C78.0373 74.5841 77.862 74.5841 76.7895 74.3056C74.0154 73.5941 71.7776 72.2019 70.2514 70.2322C69.8182 69.6753 69.1067 68.5203 69.1067 68.376C69.1067 68.3347 69.2098 68.2419 69.3439 68.18C69.4779 68.1181 69.7564 67.9428 69.9832 67.8088C70.2101 67.6747 70.6226 67.4272 70.9011 67.2828C71.1795 67.1384 71.9839 66.6641 72.6851 66.2413C73.3864 65.8184 74.0258 65.4781 74.0979 65.4781C74.1701 65.4781 74.3042 65.6225 74.4073 65.7978C75.0261 66.8394 76.4698 68.1697 77.4908 68.6234C78.1198 68.8916 79.512 69.1906 80.1823 69.1906C80.8011 69.1906 81.9355 68.9225 82.5439 68.6441C83.1936 68.345 83.5236 68.046 83.9155 67.4478C84.1836 67.025 84.2145 66.9116 84.2042 66.1072C84.2042 65.3647 84.163 65.1585 83.9567 64.8181C83.3792 63.8694 82.5955 63.3744 79.4192 61.9719C76.1398 60.5178 74.6651 59.6516 73.4689 58.4863C72.582 57.62 72.4067 57.3828 71.8498 56.3C71.1279 54.9078 71.0351 54.4541 71.0248 52.3813C71.0145 50.9272 71.0454 50.4528 71.2001 49.9578C71.4167 49.2153 72.1179 47.7819 72.4376 47.421C73.0976 46.6475 73.3348 46.4103 73.7989 46.0288C75.2014 44.8738 77.3876 44.1106 79.4811 44.0385C79.7183 44.0385 80.502 44.0797 81.2342 44.1313C83.338 44.3066 84.7714 44.8222 86.1533 45.9256C87.1948 46.7506 88.7727 48.6894 88.618 48.9472C88.5148 49.1019 84.4001 51.845 84.132 51.9275C83.967 51.9791 83.8536 51.9172 83.6267 51.6491C82.2242 49.9681 81.657 49.6072 80.2958 49.5247C79.3264 49.4628 78.8108 49.5763 78.1611 50.0094C77.4804 50.4631 77.1504 51.1541 77.1504 52.1131C77.1608 53.5156 77.697 54.1756 79.677 55.1553C80.9558 55.7844 82.0489 56.3 82.1314 56.3C82.2551 56.3 84.9055 57.62 85.5964 58.0325C88.8139 59.9197 90.1236 61.8584 90.4639 65.1997C90.7114 67.7159 89.9998 70.0156 88.453 71.645V71.645Z" fill="#252525"/>
</g>
<defs>
<filter id="filter0_g_118_1062" x="0.200195" y="0.333344" width="130.8" height="105.333" filterUnits="userSpaceOnUse" color-interpolation-filters="sRGB">
<feFlood flood-opacity="0" result="BackgroundImageFix"/>
<feBlend mode="normal" in="SourceGraphic" in2="BackgroundImageFix" result="shape"/>
<feTurbulence type="fractalNoise" baseFrequency="0.043478261679410934 0.043478261679410934" numOctaves="3" seed="5250" />
<feDisplacementMap in="shape" scale="8" xChannelSelector="R" yChannelSelector="G" result="displacedImage" width="100%" height="100%" />
<feMerge result="effect1_texture_118_1062">
<feMergeNode in="displacedImage"/>
</feMerge>
</filter>
</defs>
</svg>
