<svg width="132" height="106" viewBox="0 0 132 106" fill="none" xmlns="http://www.w3.org/2000/svg">
<g filter="url(#filter0_g_118_1054)">
<rect x="5.09961" y="4.83334" width="121.8" height="96.3333" stroke="#D8D8D8"/>
<path d="M97.3688 47.3648C97.1952 47.2267 95.5749 46.0012 92.1577 46.0012C91.2554 46.0052 90.3549 46.0827 89.4652 46.233C88.8038 41.6924 85.0559 39.4786 84.8879 39.3793L83.9703 38.8493L83.3667 39.7216C82.611 40.8933 82.0592 42.185 81.7353 43.5418C81.1235 46.1337 81.4956 48.5682 82.8101 50.6495C81.2228 51.5355 78.6764 51.7536 78.1611 51.7729H36.0034C34.9022 51.7744 34.0087 52.6657 34.0027 53.7686C33.9535 57.4679 34.5792 61.1451 35.849 64.6192C37.3013 68.4339 39.4619 71.2439 42.2728 72.9635C45.4226 74.8957 50.5401 75.9998 56.3409 75.9998C58.9615 76.008 61.5772 75.7705 64.1536 75.2904C67.7351 74.6317 71.1814 73.3779 74.3499 71.5805C76.9608 70.0662 79.3105 68.1396 81.3083 65.8751C84.6483 62.088 86.638 57.8702 88.1178 54.1219H88.7075C92.3644 54.1219 94.6132 52.6561 95.8532 51.4278C96.6773 50.6445 97.3207 49.6902 97.7382 48.6317L98 47.8644L97.3688 47.3648Z" fill="#252525"/>
<path d="M39.9112 50.5364H45.5605C45.833 50.5364 46.0538 50.3151 46.0538 50.0423V45.002C46.0553 44.7291 45.8357 44.5067 45.5633 44.5051C45.5624 44.5051 45.5614 44.5051 45.5605 44.5051H39.9112C39.6388 44.5051 39.418 44.7264 39.418 44.9992V45.002V50.0422C39.418 50.3151 39.6388 50.5364 39.9112 50.5364V50.5364Z" fill="#252525"/>
<path d="M47.6963 50.5364H53.3456C53.6181 50.5364 53.8389 50.3151 53.8389 50.0423V45.002C53.8404 44.7291 53.6208 44.5067 53.3483 44.5051C53.3474 44.5051 53.3464 44.5051 53.3455 44.5051H47.6962C47.4222 44.5051 47.2002 44.7275 47.2002 45.002V50.0422C47.2018 50.3156 47.4234 50.5364 47.6963 50.5364" fill="#252525"/>
<path d="M55.5998 50.5364H61.2491C61.5216 50.5364 61.7424 50.3151 61.7424 50.0423V45.002C61.7439 44.7291 61.5243 44.5067 61.2518 44.5051C61.2509 44.5051 61.2499 44.5051 61.249 44.5051H55.5997C55.3272 44.5051 55.1064 44.7264 55.1064 44.9992V45.002V50.0422C55.1065 50.3151 55.3274 50.5364 55.5998 50.5364V50.5364Z" fill="#252525"/>
<path d="M63.4093 50.5364H69.0586C69.3315 50.5364 69.5531 50.3157 69.5546 50.0423V45.002C69.5546 44.7275 69.3326 44.5051 69.0586 44.5051H63.4093C63.1368 44.5051 62.916 44.7264 62.916 44.9992V45.002V50.0422C62.916 50.3151 63.1369 50.5364 63.4093 50.5364V50.5364Z" fill="#252525"/>
<path d="M47.6962 43.2852H53.3455C53.6184 43.2836 53.8388 43.0616 53.8388 42.7883V37.7481C53.8388 37.4752 53.6179 37.254 53.3455 37.254H47.6962C47.4234 37.254 47.2017 37.4747 47.2002 37.7481V42.7883C47.2017 43.0621 47.4229 43.2836 47.6962 43.2852Z" fill="#252525"/>
<path d="M55.5997 43.2852H61.249C61.5218 43.2836 61.7423 43.0616 61.7423 42.7883V37.7481C61.7423 37.4752 61.5214 37.254 61.249 37.254H55.5997C55.3272 37.254 55.1064 37.4753 55.1064 37.7481V42.7883C55.1064 43.0616 55.3269 43.2836 55.5997 43.2852Z" fill="#252525"/>
<path d="M63.4093 43.2852H69.0586C69.3319 43.2836 69.5531 43.0621 69.5546 42.7883V37.7481C69.5531 37.4747 69.3315 37.254 69.0586 37.254H63.4093C63.1368 37.254 62.916 37.4753 62.916 37.7481V42.7883C62.916 43.0616 63.1364 43.2836 63.4093 43.2852Z" fill="#252525"/>
<path d="M63.4093 36.0312H69.0586C69.3315 36.0312 69.5531 35.8104 69.5546 35.5372V30.4941C69.5531 30.2207 69.3315 30 69.0586 30H63.4093C63.1368 30 62.916 30.2211 62.916 30.4941V35.5371C62.916 35.81 63.1369 36.0312 63.4093 36.0312Z" fill="#252525"/>
<path d="M71.2882 50.5364H76.9375C77.2104 50.5364 77.432 50.3157 77.4335 50.0423V45.002C77.4335 44.7275 77.2115 44.5051 76.9375 44.5051H71.2882C71.0158 44.5051 70.7949 44.7264 70.7949 44.9992V45.002V50.0422C70.7949 50.3151 71.0158 50.5364 71.2882 50.5364" fill="#252525"/>
</g>
<defs>
<filter id="filter0_g_118_1054" x="0.599609" y="0.333344" width="130.8" height="105.333" filterUnits="userSpaceOnUse" color-interpolation-filters="sRGB">
<feFlood flood-opacity="0" result="BackgroundImageFix"/>
<feBlend mode="normal" in="SourceGraphic" in2="BackgroundImageFix" result="shape"/>
<feTurbulence type="fractalNoise" baseFrequency="0.02857142873108387 0.02857142873108387" numOctaves="3" seed="3154" />
<feDisplacementMap in="shape" scale="8" xChannelSelector="R" yChannelSelector="G" result="displacedImage" width="100%" height="100%" />
<feMerge result="effect1_texture_118_1054">
<feMergeNode in="displacedImage"/>
</feMerge>
</filter>
</defs>
</svg>
