<svg width="127" height="106" viewBox="0 0 127 106" fill="none" xmlns="http://www.w3.org/2000/svg">
<g filter="url(#filter0_g_118_1034)">
<rect x="0.5" y="4.83334" width="121.8" height="96.3333" stroke="#D8D8D8"/>
<path d="M61.4004 53.7291C61.4004 51.6019 62.2334 49.5618 63.7161 48.0576C65.1988 46.5534 67.2098 45.7083 69.3066 45.7083C71.4035 45.7083 73.4145 46.5534 74.8972 48.0576C76.3799 49.5618 77.2129 51.6019 77.2129 53.7291C77.2129 55.8564 76.3799 57.8965 74.8972 59.4007C73.4145 60.9049 71.4035 61.75 69.3066 61.75C67.2098 61.75 65.1988 60.9049 63.7161 59.4007C62.2334 57.8965 61.4004 55.8564 61.4004 53.7291V53.7291Z" fill="#2B2B2B"/>
<path d="M45.5879 69.7708C45.5879 67.6436 46.4209 65.6034 47.9036 64.0992C49.3863 62.595 51.3973 61.75 53.4941 61.75H61.4004V69.7708C61.4004 71.8981 60.5674 73.9382 59.0847 75.4424C57.602 76.9466 55.591 77.7917 53.4941 77.7917C51.3973 77.7917 49.3863 76.9466 47.9036 75.4424C46.4209 73.9382 45.5879 71.8981 45.5879 69.7708V69.7708Z" fill="#ADADAD"/>
<path d="M61.4004 29.6667V45.7083H69.3066C71.4035 45.7083 73.4145 44.8633 74.8972 43.3591C76.3799 41.8549 77.2129 39.8147 77.2129 37.6875C77.2129 35.5602 76.3799 33.5201 74.8972 32.0159C73.4145 30.5117 71.4035 29.6667 69.3066 29.6667H61.4004Z" fill="black"/>
<path d="M45.5879 37.6875C45.5879 39.8147 46.4209 41.8549 47.9036 43.3591C49.3863 44.8633 51.3973 45.7083 53.4941 45.7083H61.4004V29.6667H53.4941C51.3973 29.6667 49.3863 30.5117 47.9036 32.0159C46.4209 33.5201 45.5879 35.5602 45.5879 37.6875V37.6875Z" fill="#A6A6A6"/>
<path d="M45.5879 53.7291C45.5879 55.8564 46.4209 57.8965 47.9036 59.4007C49.3863 60.9049 51.3973 61.75 53.4941 61.75H61.4004V45.7083H53.4941C51.3973 45.7083 49.3863 46.5534 47.9036 48.0576C46.4209 49.5618 45.5879 51.6019 45.5879 53.7291Z" fill="#272727"/>
</g>
<defs>
<filter id="filter0_g_118_1034" x="-4" y="0.333344" width="130.8" height="105.333" filterUnits="userSpaceOnUse" color-interpolation-filters="sRGB">
<feFlood flood-opacity="0" result="BackgroundImageFix"/>
<feBlend mode="normal" in="SourceGraphic" in2="BackgroundImageFix" result="shape"/>
<feTurbulence type="fractalNoise" baseFrequency="0.019999999552965164 0.019999999552965164" numOctaves="3" seed="1965" />
<feDisplacementMap in="shape" scale="8" xChannelSelector="R" yChannelSelector="G" result="displacedImage" width="100%" height="100%" />
<feMerge result="effect1_texture_118_1034">
<feMergeNode in="displacedImage"/>
</feMerge>
</filter>
</defs>
</svg>
