<svg width="127" height="102" viewBox="0 0 127 102" fill="none" xmlns="http://www.w3.org/2000/svg">
<g filter="url(#filter0_g_118_1082)">
<rect x="4.7002" y="5.16669" width="121.8" height="96.3333" stroke="#D1D1D1"/>
<path fill-rule="evenodd" clip-rule="evenodd" d="M71.3733 20.8333C70.9033 20.8333 70.4669 20.9345 70.064 21.0693C70.9201 21.6423 71.3901 22.4006 71.6251 23.2601C71.642 23.3781 71.6755 23.4623 71.6923 23.5803C71.7091 23.6814 71.7258 23.7825 71.7258 23.8836C71.793 25.3666 71.3398 25.552 71.0208 26.4284C70.534 27.5575 70.6683 28.7708 71.2558 29.7483C71.3062 29.8663 71.3733 30.0011 71.4573 30.119C70.8194 25.8554 74.3613 25.215 75.016 23.8836C75.0663 22.7208 74.1095 21.9456 73.3541 21.4063C72.6323 20.9682 71.9776 20.8333 71.3733 20.8333ZM76.7114 21.7939C76.6442 22.1815 76.6946 22.0804 76.6778 22.2827C76.661 22.4175 76.661 22.586 76.6443 22.7208C76.6108 22.8556 76.5771 22.9905 76.5268 23.1253C76.4932 23.2601 76.4429 23.3949 76.3925 23.5297C76.3253 23.6646 76.275 23.7825 76.2079 23.9173C76.1575 23.9848 76.1239 24.0522 76.0736 24.1196C76.04 24.1701 76.0064 24.2207 75.9728 24.2712C75.8889 24.3892 75.805 24.5072 75.7211 24.6083C75.6203 24.7094 75.5364 24.8274 75.4189 24.9116V24.9285C75.3182 25.0128 75.2175 25.1139 75.1 25.1981C74.7474 25.4678 74.3446 25.67 73.9753 25.9228C73.8578 26.0071 73.7403 26.0745 73.6395 26.1756C73.522 26.2599 73.4213 26.3441 73.3206 26.4452C73.2031 26.5463 73.1192 26.6475 73.0184 26.7654C72.9345 26.8665 72.8338 26.9845 72.7667 27.1025C72.6827 27.2204 72.5988 27.3384 72.5316 27.4564C72.4645 27.5912 72.4141 27.7092 72.347 27.844C72.2966 27.9788 72.2463 28.0968 72.2127 28.2316C72.1623 28.3833 72.1288 28.5181 72.0952 28.6529C72.0784 28.7203 72.0784 28.8046 72.0616 28.872C72.0448 28.9394 72.0448 29.0068 72.0281 29.0742C72.0281 29.209 72.0113 29.3607 72.0113 29.4955C72.0113 29.5966 72.0113 29.6977 72.0281 29.7989C72.0281 29.9337 72.0449 30.0685 72.0785 30.2202C72.0953 30.355 72.1288 30.4898 72.1624 30.6246C72.2128 30.7595 72.2463 30.8943 72.2967 31.0291C72.3302 31.1134 72.3806 31.1976 72.4142 31.265L68.5533 29.7652C67.8987 29.5798 67.2608 29.4113 66.6061 29.2596C66.2536 29.1753 65.9011 29.0911 65.5486 29.0068C64.5414 28.8046 63.5174 28.6529 62.4935 28.5518C62.4599 28.5518 62.4431 28.5349 62.4095 28.5349C61.4023 28.4338 60.412 28.3832 59.4048 28.3832C58.6662 28.3832 57.9276 28.4169 57.2058 28.4675C56.1818 28.5349 55.1578 28.6697 54.1339 28.8383C53.8821 28.8719 53.6303 28.9225 53.3785 28.9731C52.8581 29.0742 52.3545 29.1922 51.8677 29.3101C51.6159 29.3776 51.3641 29.4449 51.1123 29.5124C50.8605 29.6135 50.6255 29.7314 50.3905 29.8326C50.2058 29.9168 50.0212 30.0011 49.8365 30.0853C49.803 30.1022 49.7694 30.1022 49.7526 30.119C49.5848 30.2033 49.4337 30.2707 49.2826 30.355C49.2322 30.3718 49.1987 30.3886 49.1651 30.4055C48.9804 30.4898 48.7958 30.5909 48.6447 30.6751C48.5272 30.7257 48.4097 30.7931 48.309 30.8437C48.2586 30.8774 48.1915 30.9111 48.1579 30.9279C48.0068 31.0122 47.8558 31.0965 47.7215 31.1807C47.5704 31.265 47.4361 31.3492 47.3186 31.4335C47.2011 31.5178 47.0836 31.5852 46.9829 31.6694C46.9661 31.6863 46.9493 31.6863 46.9325 31.7031C46.8318 31.7706 46.7143 31.8548 46.6136 31.9391C46.6136 31.9391 46.5968 31.9559 46.58 31.9727C46.4961 32.0402 46.4122 32.1076 46.3282 32.175C46.2947 32.1918 46.2611 32.2255 46.2275 32.2424C46.1436 32.3098 46.0596 32.3941 45.9757 32.4615C45.9589 32.4952 45.9254 32.512 45.9085 32.5289C45.8078 32.63 45.7071 32.7143 45.6064 32.8154C45.5896 32.8154 45.5896 32.8323 45.5728 32.8491C45.4721 32.9333 45.3714 33.0345 45.2707 33.1356C45.2539 33.1525 45.2539 33.1693 45.2371 33.1693C45.1532 33.2535 45.0693 33.3378 44.9853 33.4389C44.9518 33.4726 44.9014 33.5063 44.8678 33.54C44.7839 33.6411 44.6832 33.7422 44.5825 33.8434C44.5657 33.877 44.5321 33.8939 44.5153 33.9276C44.381 34.0624 44.2635 34.1973 44.1292 34.3321C44.1124 34.349 44.0957 34.3658 44.0789 34.3826C43.8103 34.6691 43.5249 34.9556 43.2228 35.2084C42.9206 35.478 42.6017 35.7308 42.2827 35.9499C41.947 36.1858 41.6281 36.3881 41.2755 36.5903C40.9398 36.7757 40.5873 36.9442 40.218 37.0959C39.8655 37.2475 39.4962 37.3824 39.1269 37.5003C38.4219 37.652 37.7 37.9385 37.0789 37.989C36.9447 37.989 36.7936 38.0227 36.6593 38.0396C36.5082 38.0733 36.3739 38.107 36.2396 38.1407C36.1053 38.1913 35.971 38.2418 35.8368 38.2924C35.7025 38.3429 35.5682 38.4104 35.4339 38.4778C35.3164 38.562 35.1821 38.6294 35.0646 38.7137C34.9471 38.798 34.8296 38.8991 34.7289 39.0002C34.6114 39.0845 34.4939 39.2024 34.3931 39.3035C34.2924 39.4215 34.1917 39.5226 34.1078 39.6406C34.0238 39.7754 33.9231 39.8934 33.856 40.0282C33.772 40.1462 33.6881 40.281 33.621 40.4158C33.5538 40.5675 33.4867 40.7023 33.4363 40.854C33.386 40.9888 33.3356 41.1405 33.2852 41.2921C33.2517 41.4269 33.2181 41.5618 33.2013 41.6966C33.2013 41.7135 33.1845 41.7303 33.1845 41.7471C33.1509 41.8988 33.1509 42.1011 33.1341 42.2022C33.1173 42.3201 33.1006 42.4212 33.1006 42.5392C33.1006 42.6067 33.1006 42.6909 33.1174 42.7583C33.1342 42.8763 33.1509 42.9774 33.1846 43.0785C33.2181 43.1796 33.2517 43.2807 33.3021 43.3818V43.3987C33.3524 43.4998 33.4196 43.6009 33.4867 43.7021C33.5539 43.8032 33.621 43.9043 33.7049 44.0054C33.7889 44.0897 33.8896 44.1908 33.9903 44.275C34.091 44.3762 34.1918 44.4604 34.3093 44.5447C34.7121 44.8986 34.8128 45.0166 35.3332 45.2862C35.4171 45.3367 35.5011 45.3704 35.6018 45.421C35.6186 45.421 35.6354 45.4379 35.6522 45.4379C35.6522 45.4716 35.6522 45.4884 35.669 45.5222C35.6858 45.657 35.7193 45.7918 35.7529 45.9266C35.7865 46.0783 35.8368 46.2131 35.8872 46.3311C35.9376 46.4322 35.9711 46.5333 36.0215 46.6344C36.0383 46.6681 36.055 46.7018 36.0719 46.7187C36.139 46.8535 36.2061 46.9715 36.2733 47.0894C36.3572 47.2074 36.4412 47.3254 36.5251 47.4433C36.609 47.5444 36.7097 47.6624 36.8105 47.7635C36.9112 47.8646 37.0119 47.9489 37.1294 48.05C37.1294 48.05 37.1462 48.0669 37.1629 48.0669C37.2637 48.1512 37.3644 48.2354 37.4651 48.3028C37.5826 48.3871 37.7001 48.4545 37.8344 48.5219C37.9519 48.5894 38.0862 48.6567 38.2205 48.7073C38.3212 48.7579 38.4387 48.7916 38.5562 48.8253C38.573 48.8422 38.5898 48.8422 38.6234 48.859C38.6906 48.8759 38.7745 48.8926 38.8416 48.9095C38.7912 49.8195 38.7744 50.679 38.9088 50.9824C39.0598 51.3194 39.7984 50.2914 40.537 49.1117C40.4363 50.2746 40.3692 51.6396 40.537 52.0441C40.7217 52.4654 41.7289 51.1509 42.6018 49.7016C54.5033 46.9378 65.3641 55.1955 66.5055 66.8574C66.2873 65.0373 64.0547 64.0261 63.0308 64.2789C62.5272 65.526 61.6711 67.127 60.2946 68.1213C60.4121 67.009 60.3618 65.8631 60.1267 64.7508C59.7574 66.3012 59.0356 67.7505 58.0452 68.9976C56.4505 69.1156 54.8558 68.3404 54.0165 67.1776C53.9493 67.127 53.9325 67.0259 53.8822 66.9585C53.8318 66.8405 53.7815 66.7225 53.7479 66.6046C53.6975 66.4866 53.664 66.3686 53.6472 66.2507C53.6304 66.1327 53.6304 66.0147 53.6304 65.8799C53.6304 65.7956 53.6304 65.7114 53.6304 65.6271C53.6472 65.5092 53.6807 65.3912 53.7143 65.2732C53.7478 65.1553 53.7815 65.0373 53.8318 64.9193C53.899 64.8014 53.9493 64.6834 54.0332 64.5654C54.3186 63.7565 54.3186 63.0993 53.7982 62.7117C53.6975 62.6442 53.5968 62.5937 53.4793 62.5431C53.4121 62.5263 53.3282 62.4926 53.2611 62.4757C53.2107 62.4588 53.1771 62.442 53.1268 62.4251C53.0093 62.3915 52.8918 62.3577 52.7743 62.3409C52.6568 62.3072 52.5393 62.2903 52.4217 62.2903C52.3042 62.2734 52.1699 62.2566 52.0525 62.2566C51.9685 62.2566 51.8846 62.2735 51.8007 62.2735C51.6664 62.2735 51.5489 62.2904 51.4314 62.3241C51.3138 62.341 51.1963 62.3577 51.0788 62.3915C50.9613 62.4252 50.8438 62.4589 50.7263 62.5095C50.6088 62.56 50.5081 62.6106 50.3906 62.6611C50.2899 62.7117 50.1892 62.7791 50.0717 62.8297C46.1604 65.3912 48.4937 71.3907 51.1628 73.1265C50.1556 73.3119 49.1316 73.531 48.8463 73.75C48.8294 73.7669 48.8127 73.7837 48.8127 73.7837C49.5345 74.2219 50.2899 74.5926 51.0789 74.9128C52.1532 75.2667 53.2947 75.5869 53.7983 75.7218V75.7386C55.1915 76.0251 56.6016 76.1262 58.0284 76.042C65.4648 75.5196 71.5582 69.8403 72.6661 62.3578C72.6997 62.5095 72.7333 62.6443 72.7668 62.796C72.8172 63.0993 72.8843 63.4195 72.9179 63.7397V63.7566C72.9515 63.9083 72.9683 64.0599 72.9851 64.1947V64.2622C73.0019 64.4139 73.0186 64.5655 73.0186 64.7003C73.0354 64.8857 73.0522 65.0711 73.0522 65.2565V65.5261C73.0522 65.6104 73.069 65.7115 73.069 65.7958C73.069 65.8969 73.0522 65.998 73.0522 66.0991V66.335C73.0522 66.453 73.0353 66.5541 73.0353 66.6721C73.0353 66.7395 73.0353 66.8069 73.0185 66.8912C73.0185 67.0091 73.0017 67.1271 73.0017 67.2619C72.9849 67.3125 72.9849 67.363 72.9849 67.4136C72.9681 67.5484 72.9513 67.6664 72.9345 67.8012C72.9345 67.8518 72.9345 67.9023 72.9177 67.9529C72.9009 68.1214 72.8674 68.2731 72.8506 68.4416V68.4585V68.4754C72.817 68.627 72.7834 68.7956 72.7498 68.9472V68.9978C72.7163 69.1495 72.6827 69.3011 72.6491 69.4528C72.6491 69.4697 72.6323 69.5034 72.6323 69.5202C72.5988 69.6719 72.5651 69.8236 72.5148 69.9753V70.0258C72.4645 70.1943 72.4141 70.346 72.3805 70.4977C72.3637 70.5146 72.3637 70.5314 72.3637 70.5314C72.3134 70.6999 72.263 70.8684 72.2126 71.0369C72.1455 71.2055 72.0951 71.3571 72.028 71.5257C71.9608 71.6942 71.9105 71.8627 71.8433 72.0144C71.7762 72.1829 71.709 72.3346 71.6419 72.5031H71.6251C71.5579 72.6548 71.4908 72.8233 71.4068 72.975C71.39 73.0255 71.3733 73.0592 71.3565 73.0929C71.3397 73.1098 71.3397 73.1266 71.3229 73.1435C70.2318 75.3512 68.6203 77.2892 66.606 78.8059C66.4717 78.8902 66.3374 78.9913 66.2031 79.0924C66.1696 79.1261 66.1192 79.143 66.0856 79.1767C65.9681 79.2609 65.8506 79.3452 65.7163 79.4295L65.7667 79.5306H65.7835C66.0185 79.4969 66.2535 79.4631 66.4885 79.4295H66.5053C66.9417 79.362 67.3782 79.2778 67.8146 79.1935C67.9321 79.1766 68.0664 79.143 68.1839 79.1092C68.2679 79.0923 68.335 79.0756 68.4189 79.0587C68.5365 79.0418 68.654 79.0081 68.7715 78.9913C68.8722 78.9576 68.9729 78.9407 69.0736 78.907C70.7522 78.5025 72.3805 77.9464 73.9416 77.2892C71.2726 80.9461 67.6971 83.8953 63.5173 85.8333C65.4478 85.6985 67.3782 85.3783 69.2415 84.8391C76.0064 82.8336 81.6969 78.2666 85.1046 72.1155C84.4163 76.0084 82.872 79.7159 80.589 82.9516C82.2173 81.873 83.7113 80.6259 85.071 79.2103C88.8311 75.2669 91.2987 70.2617 92.1381 64.8858C92.7088 67.5484 92.8767 70.2954 92.6249 73.0086C104.745 56.0382 93.632 38.4443 88.9822 33.8099C88.9654 33.7762 88.9487 33.7593 88.9487 33.7256C88.9318 33.7425 88.9318 33.7425 88.9318 33.7593C88.9318 33.7424 88.9318 33.7424 88.915 33.7256C88.915 33.9278 88.8982 34.1301 88.8815 34.3323C88.8311 34.7199 88.7808 35.0907 88.7136 35.4614C88.6297 35.8322 88.529 36.2029 88.4283 36.5737C88.3108 36.9276 88.1765 37.2983 88.0254 37.6522C87.8743 37.9893 87.7064 38.3432 87.5218 38.6802C87.3371 39.0004 87.1357 39.3375 86.9175 39.6408C86.6993 39.961 86.4643 40.2643 86.2292 40.5508C85.9774 40.8542 85.7089 41.1238 85.4403 41.3935C85.2724 41.5451 85.1213 41.68 84.9535 41.8148C84.8192 41.9327 84.7017 42.0339 84.5674 42.1518C84.2652 42.3878 83.9631 42.6068 83.6274 42.8091C83.3084 43.0113 82.9727 43.2135 82.637 43.3821C82.2845 43.5506 81.9319 43.7022 81.5794 43.8539C81.2269 43.9887 80.8576 44.1067 80.4883 44.2078C80.119 44.3089 79.7329 44.3932 79.3636 44.4606C78.9775 44.528 78.5915 44.5617 78.2222 44.5954C77.9536 44.6123 77.685 44.6291 77.4164 44.6291C77.0303 44.6291 76.6442 44.5954 76.2749 44.5617C75.8889 44.528 75.5028 44.4774 75.1335 44.3931C74.7474 44.3257 74.3781 44.2246 74.0088 44.1067H73.992C74.3613 44.073 74.7306 44.0392 75.0999 43.9718C75.486 43.9044 75.8553 43.8202 76.2246 43.719C76.5939 43.6179 76.9632 43.5 77.3157 43.3651C77.685 43.2303 78.0375 43.0618 78.3732 42.8933C78.7257 42.7247 79.0447 42.5394 79.3804 42.3371C79.6993 42.1181 80.0183 41.899 80.3204 41.663C80.6226 41.4271 80.9079 41.1743 81.1765 40.9047C81.4619 40.6519 81.7137 40.3654 81.9655 40.0789C82.2173 39.7756 82.4523 39.4722 82.6705 39.1689C82.7041 39.1183 82.7377 39.0509 82.7712 39.0004C82.9391 38.7307 83.107 38.4611 83.258 38.1914C83.4427 37.8544 83.6106 37.5173 83.7616 37.1634C83.9127 36.8095 84.047 36.4556 84.1645 36.0849C84.282 35.731 84.3659 35.3602 84.4499 34.9895C84.517 34.6019 84.5842 34.2311 84.6177 33.8604C84.6513 33.4728 84.6849 33.0852 84.6849 32.7144C84.6849 32.4448 84.6681 32.1751 84.6514 31.9055C84.6178 31.5179 84.5674 31.1471 84.5171 30.7764C84.4499 30.3888 84.366 30.018 84.2653 29.6473C84.1478 29.2934 84.0303 28.9226 83.896 28.5687C83.7617 28.2148 83.5938 27.8609 83.426 27.5239C83.2413 27.1868 83.0567 26.8498 82.8552 26.5296C82.637 26.2094 82.4188 25.906 82.1838 25.6027C81.932 25.3162 81.6802 25.0297 81.4116 24.7432C81.2773 24.6084 81.1262 24.4567 80.9751 24.3219C80.2198 23.7321 79.4308 23.1759 78.6418 22.6704C78.5243 22.6029 78.4236 22.5524 78.3061 22.5018C77.7522 22.1479 77.2318 21.9625 76.7114 21.7939Z" fill="#BABABA"/>
</g>
<defs>
<filter id="filter0_g_118_1082" x="0.200195" y="0.666687" width="130.8" height="105.333" filterUnits="userSpaceOnUse" color-interpolation-filters="sRGB">
<feFlood flood-opacity="0" result="BackgroundImageFix"/>
<feBlend mode="normal" in="SourceGraphic" in2="BackgroundImageFix" result="shape"/>
<feTurbulence type="fractalNoise" baseFrequency="0.01785714365541935 0.01785714365541935" numOctaves="3" seed="8198" />
<feDisplacementMap in="shape" scale="8" xChannelSelector="R" yChannelSelector="G" result="displacedImage" width="100%" height="100%" />
<feMerge result="effect1_texture_118_1082">
<feMergeNode in="displacedImage"/>
</feMerge>
</filter>
</defs>
</svg>
