<svg width="124" height="98" viewBox="0 0 124 98" fill="none" xmlns="http://www.w3.org/2000/svg">
<g filter="url(#filter0_g_118_1046)">
<path d="M64.219 19.9796C62.755 19.1438 60.8465 19.1476 59.3813 19.9796C52.0428 24.0908 44.7043 28.2032 37.3646 32.3125C35.9364 33.0752 34.9731 34.6322 34.9885 36.2483V61.0884C34.9781 62.736 35.9911 64.308 37.4562 65.0603C39.5644 66.1989 41.6126 67.4531 43.7589 68.5159C46.2382 69.7526 49.34 70.0261 51.8496 68.7364C53.8867 67.6673 54.7915 65.29 54.789 63.1052C54.8054 54.9072 54.7915 46.7091 54.7953 38.5112C54.8437 38.1469 54.5743 37.7575 54.1828 37.7662C53.245 37.7512 52.3059 37.7575 51.3681 37.7637C51.0136 37.7297 50.6679 38.0285 50.6946 38.3901C50.682 46.5352 50.6971 54.6828 50.687 62.8291C50.7074 63.956 49.9575 65.039 48.8877 65.4197C46.417 66.2988 39.3649 61.6505 39.3649 61.6505C39.1061 61.5288 38.9417 61.2438 38.9671 60.9608C38.9671 52.7654 38.9683 44.5698 38.9671 36.3756C38.9315 36.0453 39.1321 35.7478 39.4309 35.6129C46.7452 31.526 54.0557 27.4288 61.37 23.3393C61.6239 23.1672 61.9782 23.1677 62.2316 23.3406C69.5459 27.4288 76.8576 31.5222 84.1732 35.6094C84.4731 35.744 84.665 36.0466 84.6345 36.3756C84.6332 44.5698 84.637 52.7654 84.632 60.9596C84.6537 61.2496 84.5061 61.5306 84.2393 61.658C76.9933 65.7228 69.6648 69.6565 62.4844 73.8393C62.1712 74.0218 61.8163 74.2285 61.4653 74.0274C59.577 72.9672 57.7117 71.8656 55.8297 70.7951C55.6251 70.6654 55.3646 70.6099 55.1512 70.7548C54.3072 71.2062 53.5137 71.5719 52.5448 71.9612C51.1838 72.5081 51.4013 72.7318 52.6285 73.4576C54.8296 74.7221 57.0342 75.9815 59.235 77.2473C60.6839 78.1651 62.6307 78.2305 64.1262 77.3822C71.4659 73.2762 78.8032 69.1652 86.1442 65.0593C87.6054 64.3028 88.6234 62.7371 88.6131 61.0882V36.2483C88.6272 34.665 87.7008 33.1358 86.3157 32.3618C78.9518 28.2306 71.5842 24.1083 64.219 19.9796Z" fill="#272727"/>
<path d="M75.2934 38.6297C72.4127 37.0652 68.9857 36.9819 65.7845 37.1863C63.4719 37.4183 61.0396 38.0662 59.3546 39.7491C57.6264 41.4409 57.2503 44.1728 58.0712 46.3814C58.6594 47.9419 60.14 48.9569 61.6712 49.4937C63.6436 50.2005 65.7152 50.419 67.7874 50.6377C69.6775 50.8371 71.5682 51.0366 73.3848 51.6067C74.1269 51.8564 74.9911 52.2383 75.2184 53.0578C75.4283 54.0285 75.1982 55.1568 74.4218 55.8312C71.9558 57.8126 65.0964 57.509 62.6599 55.9496C61.675 55.2852 61.2505 54.1091 61.0779 52.9885C61.0587 52.6391 60.7817 52.3189 60.4082 52.3454C59.4729 52.3341 58.5376 52.3366 57.6022 52.3441C57.2758 52.3163 56.9365 52.5521 56.9186 52.8901C56.7265 58.0233 61.3705 60.2611 65.7275 60.7539C68.2169 60.9946 70.7608 60.9809 73.2121 60.4386C75.0547 60.0127 76.9022 59.2285 78.1706 57.7876C79.7348 56.0366 80.0423 53.4296 79.3408 51.2486C78.8046 49.6212 77.2719 48.5773 75.7052 48.0403C73.5748 47.2986 71.0498 46.9001 69.1202 46.7135C66.3153 46.4422 62.9823 46.553 62.1885 44.682C61.872 43.7024 62.1414 42.4859 63.0283 41.8834C65.3748 40.2676 70.1503 40.4821 72.5805 41.6892C73.6963 42.2565 74.3429 43.4213 74.6098 44.5975C74.6592 44.943 74.8882 45.3034 75.2822 45.2884C76.211 45.3072 77.14 45.2934 78.0688 45.2946C78.3878 45.3174 78.7372 45.1345 78.7995 44.8029C78.7601 42.3448 77.5237 39.8286 75.2934 38.6297Z" fill="#272727"/>
</g>
<defs>
<filter id="filter0_g_118_1046" x="-3.59961" y="-4" width="130.8" height="105.333" filterUnits="userSpaceOnUse" color-interpolation-filters="sRGB">
<feFlood flood-opacity="0" result="BackgroundImageFix"/>
<feBlend mode="normal" in="SourceGraphic" in2="BackgroundImageFix" result="shape"/>
<feTurbulence type="fractalNoise" baseFrequency="0.012500000186264515 0.012500000186264515" numOctaves="3" seed="7862" />
<feDisplacementMap in="shape" scale="8" xChannelSelector="R" yChannelSelector="G" result="displacedImage" width="100%" height="100%" />
<feMerge result="effect1_texture_118_1046">
<feMergeNode in="displacedImage"/>
</feMerge>
</filter>
</defs>
</svg>
